<mxfile host="app.diagrams.net" modified="2024-03-06T15:44:48.448Z" agent="Mozilla/5.0 (Macintosh; Intel Mac OS X 10_15_7) AppleWebKit/537.36 (KHTML, like Gecko) Chrome/122.0.0.0 Safari/537.36" version="23.1.7" etag="8zEUnIeH144-6bjO0Gr5" type="github">
  <diagram name="第 1 页" id="Gcxpzw5A-dOJDwFzghVP">
    <mxGraphModel>
      <root>
        <mxCell id="0" />
        <mxCell id="1" parent="0" />
      </root>
    </mxGraphModel>
  </diagram>
</mxfile>
